<?xml version="1.0" encoding="UTF-8"?>
<svg width="600" height="500" viewBox="0 0 600 500" fill="none" xmlns="http://www.w3.org/2000/svg">
  <!-- Background Shape -->
  <rect x="10" y="10" width="580" height="480" rx="60" fill="#FFE0B2" />
  
  <!-- Purple Grapes -->
  <g transform="translate(150, 100)">
    <circle cx="0" cy="0" r="25" fill="#9575CD" />
    <circle cx="20" cy="-20" r="25" fill="#7E57C2" />
    <circle cx="40" cy="0" r="25" fill="#673AB7" />
    <circle cx="10" cy="30" r="25" fill="#5E35B1" />
    <circle cx="50" cy="30" r="25" fill="#512DA8" />
    <path d="M30 -30 Q60 -40 70 -20" stroke="#4A148C" stroke-width="4"/>
    <path d="M70 -20 Q75 -10 70 10" stroke="#4A148C" stroke-width="4"/>
  </g>
  
  <!-- Lavender -->
  <g transform="translate(320, 80)">
    <path d="M0 0 Q10 -60 0 -90" stroke="#7B1FA2" stroke-width="3"/>
    <path d="M0 0 Q40 -40 50 -70" stroke="#7B1FA2" stroke-width="3"/>
    <path d="M0 0 Q-40 -40 -50 -70" stroke="#7B1FA2" stroke-width="3"/>
    <ellipse cx="0" cy="-95" rx="5" ry="10" fill="#CE93D8" />
    <ellipse cx="50" cy="-75" rx="5" ry="10" fill="#CE93D8" />
    <ellipse cx="-50" cy="-75" rx="5" ry="10" fill="#CE93D8" />
    <ellipse cx="5" cy="-93" rx="5" ry="10" fill="#BA68C8" />
    <ellipse cx="45" cy="-73" rx="5" ry="10" fill="#BA68C8" />
    <ellipse cx="-45" cy="-73" rx="5" ry="10" fill="#BA68C8" />
  </g>
  
  <!-- Peach -->
  <g transform="translate(430, 200)">
    <circle cx="0" cy="0" r="60" fill="#FFAB91" />
    <circle cx="25" cy="-20" r="10" fill="#FFCCBC" />
    <path d="M0 -60 C-10 -75 -5 -85 5 -90" stroke="#4A148C" stroke-width="3"/>
    <path d="M5 -90 Q10 -92 15 -85" stroke="#4A148C" stroke-width="3"/>
    <ellipse cx="15" cy="-80" rx="8" ry="4" fill="#A5D6A7" transform="rotate(-15)"/>
  </g>
  
  <!-- Plum -->
  <g transform="translate(150, 300)">
    <circle cx="0" cy="0" r="40" fill="#9C27B0" />
    <circle cx="15" cy="-10" r="12" fill="#BA68C8" />
    <path d="M0 -40 Q-5 -50 10 -60" stroke="#4A148C" stroke-width="3"/>
    <path d="M10 -60 Q15 -62 20 -55" stroke="#4A148C" stroke-width="3"/>
    <ellipse cx="20" cy="-50" rx="8" ry="4" fill="#A5D6A7" transform="rotate(-15)"/>
  </g>
  
  <!-- Figs -->
  <g transform="translate(300, 350)">
    <path d="M0,0 C20,-30 40,-30 60,0 C70,15 70,40 60,60 C40,80 20,80 0,60 C-10,40 -10,15 0,0 Z" fill="#6A1B9A" />
    <path d="M30,40 C40,30 45,20 30,5 C15,20 20,30 30,40 Z" fill="#E1BEE7" />
    <path d="M5 -5 Q15 -40 25 -5" stroke="#4A148C" stroke-width="3"/>
    <ellipse cx="15" cy="-45" rx="8" ry="4" fill="#A5D6A7" transform="rotate(15)"/>
  </g>
  
  <!-- Leaves Decorations -->
  <g transform="translate(400, 400)">
    <path d="M0,0 C20,-20 50,-10 60,20" stroke="#64DD17" stroke-width="2" fill="none"/>
    <path d="M60,20 C65,30 45,50 35,45" stroke="#64DD17" stroke-width="2" fill="none"/>
    <path d="M60,20 Q80,15 85,30" stroke="#64DD17" stroke-width="2" fill="none"/>
    <ellipse cx="85" cy="30" rx="15" ry="8" fill="#A5D6A7" transform="rotate(15)"/>
  </g>
  
  <g transform="translate(100, 400)">
    <path d="M0,0 C-10,-30 -40,-20 -50,0" stroke="#64DD17" stroke-width="2" fill="none"/>
    <path d="M-50,0 C-55,10 -35,30 -25,25" stroke="#64DD17" stroke-width="2" fill="none"/>
    <path d="M-50,0 Q-70,-5 -75,10" stroke="#64DD17" stroke-width="2" fill="none"/>
    <ellipse cx="-75" cy="10" rx="15" ry="8" fill="#A5D6A7" transform="rotate(-15)"/>
  </g>
</svg>